<?xml version="1.0" encoding="UTF-8"?>
<svg id="Layer_1" xmlns="http://www.w3.org/2000/svg" version="1.1" viewBox="0 0 5000 4166.7">
  <!-- Generator: Adobe Illustrator 29.4.0, SVG Export Plug-In . SVG Version: 2.1.0 Build 152)  -->
  <defs>
    <style>
      .st0 {
        fill: #ddeae1;
      }
    </style>
  </defs>
  <path class="st0" d="M2512.4,986.5l-.4.2,386.9,783.9,864.2,125.6-625.4,609.6,147.6,860.8-773-406.4-773,406.4,147.6-860.8-625.4-609.6,864.2-125.6,386.9-783.9-.4-.2-.4.2.4-.2-.4-.2-386.7,783.5-865.4,125.8,626.2,610.4-147.8,862,774.1-407,774.1,407-147.8-862,626.2-610.4-865.4-125.8-387-784.2-.4.7.4.2"/>
  <path class="st0" d="M1260.8,1892v.4c0,0,865.1-125.7,865.1-125.7l386.5-783.1,386.5,783.1,864.2,125.6-625.3,609.6,147.6,860.7-772.9-406.4-773,406.4,147.6-860.7-626-610.2-.3.3v.4c0,0,0-.4,0-.4l-.3.3,625.6,609.8-147.8,862,774.1-407,774.1,407-147.8-862,626.3-610.4-865.5-125.8-387.1-784.2-387.1,784.2-865.5,125.8.6.6.3-.3"/>
  <path class="st0" d="M1260.8,1888.1v.4c0,0,865.1-125.7,865.1-125.7l386.4-783,386.4,783,864.1,125.6-625.3,609.5,147.6,860.7-772.9-406.3-772.9,406.3,147.6-860.7-626-610.1-.3.3v.4c0,0,0-.4,0-.4l-.3.3,625.6,609.8-147.9,862,774.1-407,774.1,407-147.8-862,626.3-610.5-865.5-125.8-387.1-784.3-387.1,784.3-865.5,125.8.7.6.3-.3"/>
  <path class="st0" d="M1260.9,1884.3v.5c0,0,865.1-125.7,865.1-125.7l386.4-783,386.4,783,864.1,125.6-625.2,609.5,147.6,860.6-772.9-406.3-772.9,406.3,147.6-860.6-626-610.1-.3.3v.5c0,0,0-.5,0-.5l-.3.3,625.6,609.8-147.8,862,774.1-407,774.1,407-147.8-862,626.3-610.5-865.5-125.8-387.1-784.3-387.1,784.3-865.5,125.8.7.7.3-.3"/>
  <path class="st0" d="M1260.9,1880.4v.5c0,0,865.1-125.7,865.1-125.7l386.4-782.9,386.4,782.9,864,125.6-625.2,609.4,147.6,860.5-772.8-406.3-772.8,406.3,147.6-860.5-625.9-610.2-.4.4v.5c0,0,0-.5,0-.5l-.4.4,625.6,609.8-147.8,862,774.1-407,774.1,407-147.8-862,626.3-610.5-865.5-125.8-387.1-784.3-387.1,784.3-865.5,125.8.7.7.4-.4"/>
  <path class="st0" d="M1260.9,1876.5v.5c0,0,865.1-125.7,865.1-125.7l386.4-782.9,386.4,782.9,864,125.6-625.2,609.4,147.6,860.5-772.8-406.2-772.8,406.2,147.6-860.5-625.9-610.1-.4.4v.5c0,0,0-.5,0-.5l-.4.4,625.6,609.8-147.9,862,774.2-407,774.2,407-147.8-862,626.3-610.5-865.5-125.8-387.1-784.3-387.1,784.3-865.5,125.8.8.8.4-.4"/>
  <path class="st0" d="M1260.9,1872.7v.6c0,0,865.1-125.7,865.1-125.7l386.3-782.8,386.4,782.8,863.9,125.5-625.1,609.4,147.6,860.4-772.7-406.2-772.7,406.2,147.6-860.4-625.9-610.1-.4.4v.6c0,0,0-.6,0-.6l-.4.4,625.5,609.7-147.9,862.1,774.2-407,774.2,407-147.9-862.1,626.3-610.5-865.5-125.8-387.1-784.3-387.1,784.3-865.6,125.8.8.8.4-.4"/>
  <path class="st0" d="M1261,1868.8v.6c0,0,865.1-125.7,865.1-125.7l386.3-782.8,386.3,782.8,863.8,125.5-625.1,609.3,147.6,860.4-772.6-406.2-772.6,406.2,147.6-860.4-625.9-610.1-.4.4v.6c0,0,0-.6,0-.6l-.4.4,625.5,609.7-147.9,862.1,774.2-407,774.2,407-147.8-862.1,626.3-610.5-865.6-125.8-387.1-784.3-387.1,784.3-865.6,125.8.9.8.4-.4"/>
  <path class="st0" d="M1261,1865v.6c0,0,865.1-125.7,865.1-125.7l386.3-782.7,386.3,782.7,863.8,125.5-625,609.3,147.5,860.3-772.6-406.2-772.6,406.2,147.6-860.3-625.9-610.1-.4.4v.6c0,0,0-.6,0-.6l-.4.4,625.5,609.7-147.9,862.1,774.2-407,774.2,407-147.9-862.1,626.4-610.5-865.6-125.8-387.1-784.4-387.1,784.4-865.6,125.8.9.9.4-.4"/>
  <path class="st0" d="M1261,1861.1v.6c0,0,865.1-125.7,865.1-125.7l386.3-782.7,386.3,782.7,863.7,125.5-625,609.2,147.5,860.2-772.5-406.1-772.5,406.1,147.6-860.2-625.9-610.1-.4.5v.6c0,0,0-.6,0-.6l-.4.4,625.5,609.7-147.9,862.1,774.2-407,774.2,407-147.9-862.1,626.4-610.6-865.6-125.8-387.1-784.4-387.1,784.4-865.6,125.8.9.9.4-.4"/>
  <path class="st0" d="M1261.1,1857.2v.7c.1,0,865.1-125.7,865.1-125.7l386.2-782.6,386.3,782.6,863.7,125.5-624.9,609.2,147.5,860.2-772.5-406.1-772.5,406.1,147.5-860.2-625.9-610.1-.5.5v.7c.1,0,0-.7,0-.7l-.5.5,625.4,609.6-147.9,862.1,774.2-407,774.2,407-147.8-862.1,626.4-610.6-865.6-125.8-387.1-784.4-387.1,784.4-865.7,125.8,1,.9.5-.5"/>
  <path class="st0" d="M1261.1,1853.4v.7c.1,0,865.1-125.7,865.1-125.7l386.2-782.6,386.2,782.6,863.6,125.5-624.9,609.1,147.5,860.1-772.4-406.1-772.4,406.1,147.5-860.1-625.9-610.1-.5.5v.7c.1,0,0-.7,0-.7l-.5.5,625.4,609.6-147.9,862.1,774.2-407,774.3,407-147.9-862.1,626.4-610.6-865.6-125.8-387.1-784.4-387.1,784.4-865.7,125.8,1,1,.5-.5"/>
  <path class="st0" d="M1261.1,1849.5v.7c0,0,865.1-125.7,865.1-125.7l386.2-782.5,386.2,782.5,863.5,125.5-624.9,609.1,147.5,860.1-772.4-406.1-772.4,406.1,147.5-860.1-625.9-610.1-.5.5v.7c0,0,0-.7,0-.7l-.5.5,625.4,609.6-147.9,862.2,774.3-407.1,774.3,407.1-147.9-862.2,626.4-610.6-865.7-125.8-387.2-784.4-387.1,784.4-865.7,125.8,1,1,.5-.5"/>
  <path class="st0" d="M1261.1,1845.6v.7c.1,0,865.1-125.7,865.1-125.7l386.1-782.5,386.2,782.5,863.5,125.5-624.8,609.1,147.5,860-772.3-406-772.3,406,147.5-860-625.9-610.1-.5.5v.7c.1,0,0-.7,0-.7l-.5.5,625.4,609.6-147.9,862.2,774.3-407.1,774.3,407.1-147.9-862.2,626.4-610.6-865.7-125.8-387.2-784.5-387.1,784.5-865.7,125.8,1.1,1,.5-.5"/>
  <path class="st0" d="M1261.2,1841.8v.8c.1,0,865.1-125.7,865.1-125.7l386.1-782.4,386.2,782.4,863.4,125.5-624.8,609,147.5,859.9-772.3-406-772.3,406,147.5-859.9-625.9-610.1-.5.5v.8c.1,0,0-.8,0-.8l-.5.6,625.3,609.5-147.9,862.2,774.3-407.1,774.3,407.1-147.9-862.2,626.4-610.6-865.7-125.8-387.2-784.5-387.1,784.5-865.7,125.8,1.1,1.1.5-.6"/>
  <path class="st0" d="M1261.2,1837.9v.8c.1,0,865.1-125.7,865.1-125.7l386.1-782.4,386.1,782.4,863.4,125.5-624.7,609,147.5,859.9-772.2-406-772.2,406,147.5-859.9-625.9-610.1-.6.6v.8c.1,0,0-.8,0-.8l-.6.6,625.3,609.5-147.9,862.2,774.3-407.1,774.3,407.1-147.9-862.2,626.4-610.6-865.7-125.8-387.2-784.5-387.1,784.5-865.8,125.8,1.1,1.1.6-.6"/>
  <path class="st0" d="M1261.2,1834.1v.8c.1,0,865.1-125.7,865.1-125.7l386.1-782.3,386.1,782.3,863.3,125.5-624.7,608.9,147.4,859.8-772.2-405.9-772.2,405.9,147.5-859.8-625.9-610.1-.6.6v.8c.1,0,0-.8,0-.8l-.6.6,625.3,609.5-147.9,862.2,774.3-407.1,774.3,407.1-147.9-862.2,626.4-610.6-865.7-125.8-387.2-784.5-387.1,784.5-865.8,125.8,1.2,1.1.6-.6"/>
  <path class="st0" d="M1261.3,1830.2v.8c.1,0,865.1-125.7,865.1-125.7l386-782.3,386.1,782.3,863.2,125.5-624.6,608.9,147.4,859.8-772.1-405.9-772.1,405.9,147.5-859.8-625.9-610.1-.6.6v.8c.1,0,0-.8,0-.8l-.6.6,625.3,609.5-147.9,862.2,774.4-407.1,774.4,407.1-147.9-862.2,626.5-610.7-865.7-125.8-387.2-784.5-387.1,784.5-865.8,125.8,1.2,1.2.6-.6"/>
  <path class="st0" d="M1261.3,1826.4v.9c.1,0,865.1-125.7,865.1-125.7l386-782.2,386.1,782.2,863.2,125.4-624.6,608.9,147.4,859.7-772.1-405.9-772.1,405.9,147.4-859.7-625.9-610.1-.6.6v.9c.1,0,0-.9,0-.9l-.6.6,625.3,609.4-147.9,862.3,774.4-407.1,774.4,407.1-147.9-862.3,626.5-610.7-865.8-125.8-387.2-784.6-387.2,784.6-865.8,125.8,1.2,1.2.6-.6"/>
  <path class="st0" d="M1261.3,1822.5v.9c.1,0,865.1-125.7,865.1-125.7l386-782.2,386.1,782.2,863.1,125.4-624.6,608.8,147.4,859.6-772-405.8-772,405.8,147.4-859.6-625.9-610.1-.6.6v.9c.1,0,0-.9,0-.9l-.6.6,625.2,609.4-147.9,862.3,774.4-407.1,774.4,407.1-147.9-862.3,626.5-610.7-865.8-125.8-387.2-784.6-387.2,784.6-865.8,125.8,1.3,1.3.6-.6"/>
  <path class="st0" d="M1261.3,1818.6v.9c.1,0,865.1-125.7,865.1-125.7l386-782.1,386,782.1,863.1,125.4-624.5,608.8,147.4,859.6-772-405.8-772,405.8,147.4-859.6-625.9-610.1-.6.7v.9c.1,0,0-.9,0-.9l-.6.7,625.2,609.4-147.9,862.3,774.4-407.1,774.4,407.1-147.9-862.3,626.5-610.7-865.8-125.8-387.2-784.6-387.2,784.6-865.9,125.8,1.3,1.3.6-.7"/>
  <path class="st0" d="M1261.4,1814.8v.9c.1,0,865.1-125.7,865.1-125.7l385.9-782.1,386,782.1,863,125.4-624.5,608.7,147.4,859.5-771.9-405.8-771.9,405.8,147.4-859.5-625.9-610.1-.6.7v.9c.1,0,0-.9,0-.9l-.7.7,625.2,609.4-147.9,862.3,774.4-407.1,774.4,407.1-147.9-862.3,626.5-610.7-865.8-125.8-387.2-784.6-387.2,784.6-865.9,125.8,1.4,1.3.7-.7"/>
  <path class="st0" d="M1261.4,1810.9v.9c.1,0,865.1-125.7,865.1-125.7l385.9-782,386,782,863,125.4-624.4,608.7,147.4,859.5-771.9-405.8-771.9,405.8,147.4-859.5-625.9-610.1-.7.7v.9c.1,0,0-.9,0-.9l-.7.7,625.2,609.3-147.9,862.3,774.4-407.1,774.4,407.1-147.9-862.3,626.5-610.7-865.8-125.8-387.3-784.6-387.2,784.6-865.9,125.8,1.4,1.4.7-.7"/>
  <path class="st0" d="M1261.4,1807v1c.1,0,865.1-125.7,865.1-125.7l385.9-782,385.9,782,862.9,125.4-624.4,608.7,147.4,859.4-771.8-405.7-771.8,405.7,147.4-859.4-625.9-610.1-.7.7v1c.1,0,0-1,0-1l-.7.7,625.1,609.3-147.9,862.4,774.4-407.1,774.5,407.1-147.9-862.4,626.5-610.7-865.8-125.8-387.3-784.6-387.2,784.6-865.9,125.8,1.4,1.4.7-.7"/>
  <path class="st0" d="M1261.4,1803.2l.2,1,865-125.7,385.9-781.9,385.9,781.9,862.8,125.4-624.4,608.6,147.4,859.4-771.8-405.7-771.8,405.7,147.4-859.4-625.9-610.1-.7.7.2,1-.2-1-.7.7,625.1,609.3-147.9,862.4,774.4-407.1,774.5,407.1-147.9-862.4,626.5-610.8-865.9-125.8-387.3-784.6-387.2,784.6-865.9,125.8,1.5,1.4.7-.7"/>
  <path class="st0" d="M1261.5,1799.3v1c.1,0,865.1-125.7,865.1-125.7l385.8-781.9,385.9,781.9,862.8,125.4-624.3,608.6,147.3,859.3-771.7-405.7-771.7,405.7,147.4-859.3-625.9-610.1-.7.8v1c.1,0,0-1,0-1l-.7.8,625.1,609.3-147.9,862.4,774.5-407.1,774.5,407.1-147.9-862.4,626.6-610.8-865.9-125.8-387.3-784.7-387.2,784.7-866,125.8,1.5,1.5.7-.8"/>
  <path class="st0" d="M1261.5,1795.5v1.1c.1,0,865.1-125.7,865.1-125.7l385.8-781.8,385.9,781.8,862.7,125.4-624.3,608.5,147.3,859.2-771.7-405.7-771.6,405.7,147.4-859.2-625.9-610-.7.8v1.1c.1,0,0-1.1,0-1.1l-.8.8,625.1,609.3-147.9,862.4,774.5-407.1,774.5,407.1-147.9-862.4,626.6-610.8-865.9-125.8-387.3-784.7-387.2,784.7-866,125.8,1.6,1.5.8-.8"/>
  <path class="st0" d="M1261.5,1791.6l.2,1.1,865-125.7,385.8-781.8,385.9,781.8,862.7,125.4-624.2,608.5,147.3,859.2-771.6-405.6-771.6,405.6,147.4-859.2-625.9-610-.8.8.2,1.1-.2-1.1-.8.8,625.1,609.2-147.9,862.4,774.5-407.2,774.5,407.2-147.9-862.4,626.6-610.8-865.9-125.8-387.3-784.7-387.2,784.7-866,125.8,1.6,1.6.8-.8"/>
  <path class="st0" d="M1261.6,1787.7l.2,1.1,865-125.7,385.7-781.7,385.8,781.7,862.6,125.4-624.2,608.4,147.3,859.1-771.6-405.6-771.5,405.6,147.3-859.1-625.9-610-.8.8.2,1.1-.2-1.1-.8.8,625,609.2-147.9,862.4,774.5-407.2,774.5,407.2-147.9-862.4,626.6-610.8-865.9-125.9-387.3-784.7-387.2,784.7-866,125.9,1.6,1.6.8-.8"/>
  <path class="st0" d="M1261.6,1783.9l.2,1.1,864.9-125.7,385.7-781.6,385.8,781.6,862.5,125.4-624.2,608.4,147.3,859.1-771.5-405.6-771.5,405.6,147.3-859.1-625.9-610-.8.8.2,1.1-.2-1.1-.8.8,625,609.2-147.9,862.5,774.5-407.2,774.6,407.2-147.9-862.5,626.6-610.8-866-125.9-387.3-784.7-387.2,784.7-866.1,125.9,1.7,1.6.8-.8"/>
  <path class="st0" d="M1261.6,1780l.2,1.2,864.9-125.7,385.7-781.6,385.8,781.6,862.5,125.3-624.1,608.4,147.3,859-771.5-405.5-771.4,405.5,147.3-859-625.9-610-.8.8.2,1.2-.2-1.2-.8.8,625,609.2-147.9,862.5,774.5-407.2,774.6,407.2-147.9-862.5,626.6-610.8-866-125.9-387.3-784.8-387.2,784.8-866.1,125.9,1.7,1.7.8-.8"/>
  <path class="st0" d="M1261.6,1776.2l.2,1.2,864.9-125.7,385.7-781.5,385.8,781.5,862.4,125.3-624.1,608.3,147.3,858.9-771.4-405.5-771.4,405.5,147.3-858.9-625.9-610-.8.9.2,1.2-.2-1.2-.8.9,625,609.1-147.9,862.5,774.6-407.2,774.6,407.2-147.9-862.5,626.6-610.8-866-125.9-387.4-784.8-387.2,784.8-866.1,125.9,1.7,1.7.8-.9"/>
  <path class="st0" d="M1261.7,1772.3l.2,1.2,864.9-125.7,385.6-781.5,385.7,781.5,862.4,125.3-624,608.3,147.3,858.9-771.4-405.5-771.3,405.5,147.3-858.9-625.9-610-.9.9.2,1.2-.2-1.2-.9.9,624.9,609.1-147.9,862.5,774.6-407.2,774.6,407.2-147.9-862.5,626.6-610.8-866-125.9-387.4-784.8-387.2,784.8-866.1,125.9,1.8,1.7.9-.9"/>
  <path class="st0" d="M1261.7,1768.4l.2,1.2,864.9-125.7,385.6-781.4,385.7,781.4,862.3,125.3-624,608.2,147.3,858.8-771.3-405.4-771.3,405.4,147.3-858.8-625.9-610-.9.9.2,1.2-.2-1.2-.9.9,624.9,609.1-147.9,862.5,774.6-407.2,774.6,407.2-147.9-862.5,626.7-610.9-866-125.9-387.4-784.8-387.3,784.8-866.1,125.9,1.8,1.8.9-.9"/>
  <path class="st0" d="M1261.7,1764.6l.2,1.3,864.9-125.7,385.6-781.4,385.7,781.4,862.2,125.3-623.9,608.2,147.3,858.8-771.3-405.4-771.2,405.4,147.3-858.8-625.9-610-.9.9.2,1.3-.2-1.3-.9.9,624.9,609.1-147.9,862.6,774.6-407.2,774.6,407.2-147.9-862.6,626.7-610.9-866-125.9-387.4-784.8-387.3,784.8-866.2,125.9,1.9,1.8.9-.9"/>
  <path class="st0" d="M1261.8,1760.7l.2,1.3,864.9-125.7,385.6-781.3,385.7,781.3,862.2,125.3-623.9,608.2,147.2,858.7-771.2-405.4-771.2,405.4,147.3-858.7-625.9-610-.9.9.2,1.3-.2-1.3-.9.9,624.9,609.1-147.9,862.6,774.6-407.2,774.7,407.2-147.9-862.6,626.7-610.9-866.1-125.9-387.4-784.9-387.3,784.9-866.2,125.9,1.9,1.8.9-.9"/>
  <path class="st0" d="M1261.8,1756.9l.2,1.3,864.9-125.7,385.5-781.3,385.6,781.3,862.1,125.3-623.9,608.1,147.2,858.7-771.1-405.4-771.1,405.4,147.3-858.7-625.8-610-.9,1,.2,1.3-.2-1.3-.9.9,624.9,609-147.9,862.6,774.6-407.2,774.7,407.2-147.9-862.6,626.7-610.9-866.1-125.9-387.4-784.9-387.3,784.9-866.2,125.9,1.9,1.9.9-.9"/>
  <path class="st0" d="M1261.8,1753l.2,1.3,864.9-125.7,385.5-781.2,385.6,781.2,862.1,125.3-623.8,608.1,147.2,858.6-771.1-405.3-771.1,405.3,147.3-858.6-625.9-610-.9,1,.2,1.3-.2-1.3-.9,1,624.8,609-147.9,862.6,774.6-407.2,774.7,407.2-147.9-862.6,626.7-610.9-866.1-125.9-387.4-784.9-387.3,784.9-866.2,125.9,2,1.9.9-1"/>
  <path class="st0" d="M1261.8,1749.1l.2,1.4,864.9-125.7,385.5-781.2,385.6,781.2,862,125.3-623.8,608,147.2,858.6-771.1-405.3-771,405.3,147.2-858.6-625.8-610-1,1,.2,1.4-.2-1.4-1,1,624.8,609-148,862.6,774.7-407.2,774.7,407.2-147.9-862.6,626.7-610.9-866.1-125.9-387.4-784.9-387.3,784.9-866.2,125.9,2,1.9,1-1"/>
  <path class="st0" d="M1261.9,1745.3l.2,1.4,864.9-125.7,385.4-781.1,385.6,781.1,862,125.3-623.7,608,147.2,858.5-771-405.3-771,405.3,147.2-858.5-625.8-610-1,1,.2,1.4-.2-1.4-1,1,624.8,609-147.9,862.6,774.7-407.2,774.7,407.2-147.9-862.6,626.7-610.9-866.1-125.9-387.4-784.9-387.3,784.9-866.3,125.9,2,2,1-1"/>
  <path class="st0" d="M1261.9,1741.4l.2,1.4,864.9-125.7,385.4-781.1,385.5,781.1,861.9,125.3-623.7,608,147.2,858.4-770.9-405.2-770.9,405.2,147.2-858.4-625.8-610-1,1,.2,1.4-.2-1.4-1,1,624.8,608.9-148,862.7,774.7-407.2,774.7,407.2-147.9-862.7,626.7-610.9-866.1-125.9-387.4-784.9-387.3,784.9-866.3,125.9,2.1,2,1-1"/>
  <path class="st0" d="M2512.4,829l-1.3.6,386.8,783.7,861.8,125.3-623.6,607.9,147.2,858.4-770.9-405.2-770.9,405.2,147.2-858.4-623.7-607.9,862-125.3,386.7-783.7-1.3-.6-1.3.6,1.3-.6-1.3-.6-386,782.3-866.3,125.9,626.8,611-147.9,862.7,774.7-407.2,774.8,407.2-147.9-862.7,626.8-611-866.2-125.9-387.4-784.9-1.3,2.6,1.3.6"/>
</svg>