<svg width="55" height="55" viewBox="0 0 55 55" fill="none" xmlns="http://www.w3.org/2000/svg">
<g clip-path="url(#clip0_2356_5109)">
<rect width="55" height="55" rx="16" fill="white"/>
<path d="M28.0937 13C19.7587 13 13 19.84 13 28.2778C13 35.0281 17.3248 40.7549 23.3221 42.775C24.0763 42.9165 24.3534 42.4437 24.3534 42.0401C24.3534 41.6758 24.3393 40.4722 24.3329 39.1956C20.1337 40.1198 19.2476 37.3931 19.2476 37.3931C18.5611 35.6271 17.5718 35.1576 17.5718 35.1576C16.2024 34.2094 17.675 34.2288 17.675 34.2288C19.1907 34.3367 19.9888 35.8033 19.9888 35.8033C21.335 38.1389 23.5198 37.4636 24.381 37.0734C24.5164 36.0858 24.9077 35.4119 25.3393 35.0304C21.9869 34.644 18.4626 33.334 18.4626 27.4799C18.4626 25.8121 19.0522 24.4491 20.0178 23.3792C19.861 22.9944 19.3445 21.4405 20.164 19.3361C20.164 19.3361 21.4314 18.9255 24.3158 20.9021C25.5197 20.5635 26.811 20.3939 28.0937 20.3881C29.3764 20.3939 30.6686 20.5635 31.8749 20.9021C34.7559 18.9255 36.0216 19.3361 36.0216 19.3361C36.8431 21.4405 36.3263 22.9944 36.1695 23.3792C37.1372 24.4491 37.7229 25.812 37.7229 27.4799C37.7229 33.3478 34.1919 34.64 30.8309 35.0182C31.3723 35.4923 31.8547 36.4221 31.8547 37.8474C31.8547 39.8916 31.8371 41.5368 31.8371 42.0401C31.8371 42.4466 32.1088 42.923 32.874 42.7731C38.8679 40.7505 43.1873 35.0258 43.1873 28.2778C43.1873 19.84 36.4294 13 28.0937 13Z" fill="#161614"/>
<path d="M18.0297 34.3631C17.9966 34.4389 17.8785 34.4617 17.7711 34.4097C17.6616 34.3599 17.6 34.2564 17.6356 34.1801C17.6682 34.102 17.7863 34.0802 17.8955 34.1327C18.0052 34.1824 18.0677 34.2869 18.0297 34.3631ZM18.7722 35.0336C18.7002 35.1012 18.5595 35.0698 18.4639 34.963C18.3652 34.8565 18.3468 34.7141 18.4198 34.6455C18.494 34.5781 18.6306 34.6095 18.7295 34.7162C18.8282 34.8239 18.8475 34.9654 18.7722 35.0336ZM19.2816 35.8915C19.1891 35.9566 19.0378 35.8957 18.9444 35.7597C18.8519 35.624 18.8519 35.4611 18.9464 35.3957C19.0401 35.3304 19.1891 35.3892 19.2837 35.5239C19.3761 35.6621 19.3762 35.8249 19.2816 35.8915ZM20.1429 36.8853C20.0602 36.9775 19.884 36.9528 19.755 36.8267C19.6231 36.7036 19.5863 36.5287 19.6693 36.4364C19.753 36.3439 19.9302 36.3698 20.0602 36.4949C20.1912 36.6178 20.2311 36.7939 20.1429 36.8853ZM21.2561 37.2208C21.2198 37.3403 21.05 37.3947 20.8791 37.3439C20.7084 37.2916 20.5967 37.1513 20.6311 37.0304C20.6666 36.91 20.837 36.8533 21.0093 36.9077C21.1798 36.9599 21.2916 37.099 21.2561 37.2208ZM22.5232 37.363C22.5275 37.489 22.3825 37.5935 22.2031 37.5957C22.0225 37.5998 21.8765 37.4977 21.8747 37.3739C21.8747 37.2466 22.0164 37.1431 22.1968 37.1401C22.3763 37.1365 22.5232 37.2377 22.5232 37.363ZM23.7679 37.3147C23.7894 37.4376 23.6646 37.5639 23.4865 37.5974C23.3113 37.6298 23.1491 37.554 23.1268 37.4321C23.105 37.306 23.232 37.1799 23.4069 37.1472C23.5854 37.1158 23.7451 37.1897 23.7679 37.3147Z" fill="#161614"/>
</g>
<defs>
<clipPath id="clip0_2356_5109">
<rect width="55" height="55" fill="white"/>
</clipPath>
</defs>
</svg>
