<svg width="56" height="56" viewBox="0 0 56 56" fill="none" xmlns="http://www.w3.org/2000/svg">
<rect y="1" width="55" height="55" rx="16" fill="#1E2235"/>
<path d="M28.0001 12.8286C19.41 12.8286 12.4445 19.793 12.4445 28.3842C12.4445 35.2572 16.9016 41.0881 23.0824 43.145C23.8598 43.289 24.1452 42.8076 24.1452 42.3967C24.1452 42.0258 24.1307 40.8003 24.1241 39.5005C19.7964 40.4415 18.8833 37.6652 18.8833 37.6652C18.1757 35.8671 17.1561 35.3891 17.1561 35.3891C15.7448 34.4236 17.2625 34.4434 17.2625 34.4434C18.8246 34.5532 19.6471 36.0465 19.6471 36.0465C21.0345 38.4246 23.2861 37.737 24.1738 37.3397C24.3134 36.3341 24.7166 35.648 25.1614 35.2596C21.7063 34.8661 18.0742 33.5323 18.0742 27.5718C18.0742 25.8736 18.6818 24.4859 19.677 23.3965C19.5155 23.0047 18.9831 21.4226 19.8277 19.2799C19.8277 19.2799 21.1339 18.8618 24.1066 20.8744C25.3473 20.5296 26.6781 20.3569 28.0001 20.351C29.3221 20.3569 30.6538 20.5296 31.897 20.8744C34.8661 18.8618 36.1705 19.2799 36.1705 19.2799C37.0172 21.4226 36.4846 23.0047 36.323 23.3965C37.3204 24.4859 37.9239 25.8735 37.9239 27.5718C37.9239 33.5464 34.2849 34.8621 30.8211 35.2471C31.379 35.7299 31.8761 36.6766 31.8761 38.1278C31.8761 40.2091 31.8581 41.8843 31.8581 42.3967C31.8581 42.8106 32.1381 43.2957 32.9267 43.143C39.104 41.0837 43.5556 35.2549 43.5556 28.3842C43.5556 19.793 36.591 12.8286 28.0001 12.8286Z" fill="white"/>
<path d="M18.2705 34.9879C18.2364 35.0651 18.1146 35.0883 18.0039 35.0353C17.8911 34.9846 17.8277 34.8792 17.8643 34.8016C17.8978 34.722 18.0196 34.6998 18.1322 34.7533C18.2453 34.8039 18.3097 34.9103 18.2705 34.9879ZM19.0357 35.6706C18.9615 35.7394 18.8165 35.7074 18.718 35.5987C18.6163 35.4903 18.5972 35.3453 18.6725 35.2754C18.749 35.2067 18.8897 35.2388 18.9917 35.3474C19.0934 35.4571 19.1133 35.6011 19.0357 35.6706ZM19.5607 36.5441C19.4653 36.6104 19.3094 36.5483 19.2131 36.4099C19.1178 36.2717 19.1178 36.1058 19.2152 36.0393C19.3118 35.9728 19.4653 36.0326 19.5629 36.1698C19.658 36.3105 19.6582 36.4763 19.5607 36.5441ZM20.4483 37.5559C20.3631 37.6498 20.1815 37.6247 20.0486 37.4963C19.9126 37.3709 19.8747 37.1929 19.9602 37.0988C20.0465 37.0047 20.2291 37.0311 20.3631 37.1584C20.4981 37.2836 20.5392 37.4629 20.4483 37.5559ZM21.5956 37.8975C21.5582 38.0192 21.3832 38.0746 21.2071 38.0229C21.0311 37.9696 20.916 37.8268 20.9515 37.7037C20.9881 37.5811 21.1638 37.5234 21.3413 37.5788C21.5169 37.6319 21.6322 37.7735 21.5956 37.8975ZM22.9015 38.0423C22.9059 38.1706 22.7565 38.277 22.5715 38.2793C22.3855 38.2833 22.235 38.1795 22.2331 38.0534C22.2331 37.9238 22.3791 37.8184 22.5651 37.8154C22.75 37.8117 22.9015 37.9148 22.9015 38.0423ZM24.1842 37.9931C24.2064 38.1183 24.0779 38.2469 23.8942 38.281C23.7137 38.314 23.5465 38.2367 23.5235 38.1127C23.501 37.9843 23.6321 37.8559 23.8123 37.8226C23.9962 37.7906 24.1608 37.8659 24.1842 37.9931Z" fill="white"/>
</svg>
