<svg width="55" height="55" viewBox="0 0 55 55" fill="none" xmlns="http://www.w3.org/2000/svg">
<rect width="55" height="55" rx="16" fill="white"/>
<path d="M8.29297 19.1338C8.29297 17.3785 9.71593 15.9556 11.4712 15.9556V15.9556C13.2266 15.9556 14.6495 17.3785 14.6495 19.1338V41.9613H13.1088C10.4491 41.9613 8.29297 39.8051 8.29297 37.1454V19.1338Z" fill="#0094FF"/>
<path d="M39.0979 19.1338C39.0979 17.3785 40.5209 15.9556 42.2762 15.9556V15.9556C44.0315 15.9556 45.4545 17.3785 45.4545 19.1338V37.1454C45.4545 39.8051 43.2983 41.9613 40.6386 41.9613H39.0979V19.1338Z" fill="#03A400"/>
<path d="M40.3874 15.8986C41.687 14.83 43.6694 14.9551 44.8237 16.1785V16.1785C45.9937 17.4187 45.8649 19.3107 44.5374 20.383L37.1826 26.3241L35.9819 19.5208L40.3874 15.8986Z" fill="#FFE600"/>
<path d="M8.61797 17.1181C9.60426 15.677 11.5756 15.3035 13.0213 16.2831L27.9549 26.4022L36.0486 19.453L37.2127 26.2938L28.2186 34.1259L9.45879 21.5087C8.00621 20.5315 7.62933 18.5629 8.61797 17.1181Z" fill="#FF0909" fill-opacity="0.86"/>
</svg>
