<svg width="55" height="55" viewBox="0 0 55 55" fill="none" xmlns="http://www.w3.org/2000/svg">
<rect width="55" height="55" rx="16" fill="#1E2235"/>
<path d="M9.22632 19.2004C9.22632 17.4453 10.6491 16.0225 12.4042 16.0225V16.0225C14.1594 16.0225 15.5822 17.4453 15.5822 19.2004V42.0299H14.0425C11.3826 42.0299 9.22632 39.8736 9.22632 37.2137V19.2004Z" fill="#0094FF"/>
<path d="M40.0277 19.2004C40.0277 17.4453 41.4505 16.0225 43.2056 16.0225V16.0225C44.9608 16.0225 46.3836 17.4453 46.3836 19.2004V37.2137C46.3836 39.8736 44.2273 42.0299 41.5674 42.0299H40.0277V19.2004Z" fill="#03A400"/>
<path d="M41.317 15.9656C42.6166 14.897 44.5988 15.0221 45.7529 16.2456V16.2456C46.9228 17.4858 46.794 19.378 45.4666 20.4504L38.1127 26.3918L36.9121 19.5881L41.317 15.9656Z" fill="#FFE600"/>
<path d="M9.55168 17.1853C10.5379 15.744 12.5093 15.3695 13.955 16.3494L28.8866 26.4695L36.9794 19.5203L38.1425 26.3611L29.1493 34.1941L10.3925 21.5759C8.93983 20.5987 8.56311 18.6303 9.55168 17.1853Z" fill="#FF0909" fill-opacity="0.86"/>
</svg>
