<svg width="110" height="112" viewBox="0 0 110 112" fill="none" xmlns="http://www.w3.org/2000/svg">
<path d="M81.9423 24.8887L77.0333 80.8822L54.967 87.1109L32.9614 80.8909L28.0576 24.8887H81.9423Z" fill="#264DE4"/>
<path d="M72.8306 77.3168L77.0257 29.4678H55V82.35L72.8306 77.3168Z" fill="#2965F1"/>
<path d="M39.2996 50.2383L39.9042 57.1067H55V50.2383H39.2996Z" fill="#EBEBEB"/>
<path d="M55 36.3359H54.9767H38.0847L38.6979 43.2045H55V36.3359Z" fill="#EBEBEB"/>
<path d="M55 75.222V68.0759L54.9704 68.0839L47.4576 66.0184L46.9773 60.5405H43.3266H40.2056L41.1507 71.325L54.9689 75.2308L55 75.222Z" fill="#EBEBEB"/>
<path d="M63.2833 57.1062L62.5002 66.0141L54.9766 68.0817V75.2275L68.8058 71.325L68.9073 70.1646L70.4925 52.0822L70.6571 50.2378L71.8749 36.3359H54.9766V43.2045H64.4821L63.8683 50.2378H54.9766V57.1062H63.2833Z" fill="white"/>
</svg>
