<svg width="110" height="112" viewBox="0 0 110 112" fill="none" xmlns="http://www.w3.org/2000/svg">
<path d="M44.8148 87.1108C50.4371 87.1108 55 82.4649 55 76.7405V66.3701H44.8148C39.1926 66.3701 34.6296 71.016 34.6296 76.7405C34.6296 82.4649 39.1926 87.1108 44.8148 87.1108Z" fill="#0ACF83"/>
<path d="M34.6296 55.9997C34.6296 50.2753 39.1926 45.6294 44.8148 45.6294H55V66.3701H44.8148C39.1926 66.3701 34.6296 61.7242 34.6296 55.9997Z" fill="#A259FF"/>
<path d="M34.6296 35.259C34.6296 29.5346 39.1926 24.8887 44.8148 24.8887H55V45.6294H44.8148C39.1926 45.6294 34.6296 40.9835 34.6296 35.259Z" fill="#F24E1E"/>
<path d="M55 24.8887H65.1852C70.8074 24.8887 75.3704 29.5346 75.3704 35.259C75.3704 40.9835 70.8074 45.6294 65.1852 45.6294H55V24.8887Z" fill="#FF7262"/>
<path d="M75.3704 55.9997C75.3704 61.7242 70.8074 66.3701 65.1852 66.3701C59.563 66.3701 55 61.7242 55 55.9997C55 50.2753 59.563 45.6294 65.1852 45.6294C70.8074 45.6294 75.3704 50.2753 75.3704 55.9997Z" fill="#1ABCFE"/>
</svg>
