<svg width="110" height="112" viewBox="0 0 110 112" fill="none" xmlns="http://www.w3.org/2000/svg">
<path d="M85.5554 24.8887H24.4443V87.1109H85.5554V24.8887Z" fill="#F7DF1E"/>
<path d="M65.4954 73.4998C66.7264 75.5462 68.3279 77.0504 71.1603 77.0504C73.5398 77.0504 75.0598 75.8396 75.0598 74.1665C75.0598 72.1616 73.4981 71.4514 70.879 70.285L69.4434 69.6578C65.2995 67.8603 62.5466 65.6085 62.5466 60.848C62.5466 56.4628 65.8281 53.1245 70.9566 53.1245C74.6078 53.1245 77.2326 54.4183 79.1242 57.806L74.6524 60.7295C73.6678 58.9319 72.6056 58.2238 70.9566 58.2238C69.2746 58.2238 68.2085 59.3102 68.2085 60.7295C68.2085 62.4835 69.2756 63.1936 71.7394 64.2801L73.175 64.9062C78.0542 67.0366 80.8091 69.2085 80.8091 74.0914C80.8091 79.3556 76.7476 82.2396 71.2932 82.2396C65.96 82.2396 62.5145 79.6519 60.8287 76.2603L65.4954 73.4998ZM45.2094 74.0065C46.1115 75.6361 46.9322 77.0139 48.9052 77.0139C50.7919 77.0139 51.9821 76.2623 51.9821 73.3398V53.4583H57.7246V73.4188C57.7246 79.4732 54.2384 82.2287 49.1496 82.2287C44.5518 82.2287 41.8891 79.806 40.5349 76.888L45.2094 74.0065Z" fill="black"/>
</svg>
